<svg xmlns="http://www.w3.org/2000/svg" viewBox="0 0 800 600">
    <!-- Background Circle -->
    <circle cx="400" cy="300" r="250" fill="#f0f4ff"/>
    
    <!-- Ballot Box -->
    <rect x="300" y="200" width="200" height="180" rx="10" fill="#6c63ff"/>
    <rect x="320" y="220" width="160" height="140" rx="5" fill="white"/>
    
    <!-- Ballot Slot -->
    <rect x="350" y="190" width="100" height="20" rx="5" fill="#4a47d4"/>
    
    <!-- Voting Paper -->
    <g transform="rotate(-15, 400, 200)">
        <rect x="380" y="100" width="80" height="100" fill="white" stroke="#6c63ff" stroke-width="2"/>
        <line x1="390" y1="120" x2="450" y2="120" stroke="#ccc" stroke-width="2"/>
        <line x1="390" y1="140" x2="450" y2="140" stroke="#ccc" stroke-width="2"/>
        <line x1="390" y1="160" x2="450" y2="160" stroke="#ccc" stroke-width="2"/>
        <circle cx="400" cy="140" r="5" fill="#6c63ff"/>
    </g>
    
    <!-- Checkmark -->
    <g transform="translate(360, 270) scale(0.8)">
        <circle cx="50" cy="50" r="40" fill="#4CAF50"/>
        <path d="M30 50 L45 65 L75 35" stroke="white" stroke-width="8" fill="none"/>
    </g>
    
    <!-- Stars -->
    <g fill="#ffd700">
        <path d="M600,250 l5,10 10,5 -10,5 -5,10 -5,-10 -10,-5 10,-5z"/>
        <path d="M200,350 l5,10 10,5 -10,5 -5,10 -5,-10 -10,-5 10,-5z"/>
        <path d="M500,150 l3,6 6,3 -6,3 -3,6 -3,-6 -6,-3 6,-3z"/>
        <path d="M300,450 l4,8 8,4 -8,4 -4,8 -4,-8 -8,-4 8,-4z"/>
    </g>
</svg> 